<svg xmlns="http://www.w3.org/2000/svg" width="760" height="360" viewBox="0 0 760 360">
<rect width="760" height="360" fill="#0e1013"/>
<text x="56" y="28" fill="#d1d3d9" font="13px 'Helvetica Neue', Arial, sans-serif" font-size="15">Editing frame time — paint drag, 10×10 vs 1000×1000 (1M cells)</text>
<text x="16" y="180.0" fill="#9096a6" font="13px 'Helvetica Neue', Arial, sans-serif" font-size="11" transform="rotate(-90 16 180.0)" text-anchor="middle">ms</text>
<line x1="56" y1="304.0" x2="736" y2="304.0" stroke="#22252e"/><text x="48" y="308.0" fill="#9096a6" font="13px 'Helvetica Neue', Arial, sans-serif" font-size="11" text-anchor="end">0</text><line x1="56" y1="242.0" x2="736" y2="242.0" stroke="#22252e"/><text x="48" y="246.0" fill="#9096a6" font="13px 'Helvetica Neue', Arial, sans-serif" font-size="11" text-anchor="end">14</text><line x1="56" y1="180.0" x2="736" y2="180.0" stroke="#22252e"/><text x="48" y="184.0" fill="#9096a6" font="13px 'Helvetica Neue', Arial, sans-serif" font-size="11" text-anchor="end">29</text><line x1="56" y1="118.0" x2="736" y2="118.0" stroke="#22252e"/><text x="48" y="122.0" fill="#9096a6" font="13px 'Helvetica Neue', Arial, sans-serif" font-size="11" text-anchor="end">43</text><line x1="56" y1="56.0" x2="736" y2="56.0" stroke="#22252e"/><text x="48" y="60.0" fill="#9096a6" font="13px 'Helvetica Neue', Arial, sans-serif" font-size="11" text-anchor="end">57</text><line x1="56" y1="232.0" x2="736" y2="232.0" stroke="#4caf50" stroke-dasharray="6 4"/><text x="62" y="226.0" fill="#4caf50" font="13px 'Helvetica Neue', Arial, sans-serif" font-size="11" text-anchor="start">60fps budget (16.7ms)</text><rect x="97.3" y="268.1" width="44.0" height="35.9" fill="#8b6ce0"/><text x="119.3" y="262.1" fill="#d1d3d9" font="13px 'Helvetica Neue', Arial, sans-serif" font-size="11" text-anchor="middle">8.3</text><rect x="145.3" y="267.3" width="44.0" height="36.7" fill="#d64d8e"/><text x="167.3" y="261.3" fill="#d1d3d9" font="13px 'Helvetica Neue', Arial, sans-serif" font-size="11" text-anchor="middle">8.5</text><rect x="193.3" y="263.5" width="44.0" height="40.5" fill="#5b8def"/><text x="215.3" y="257.5" fill="#d1d3d9" font="13px 'Helvetica Neue', Arial, sans-serif" font-size="11" text-anchor="middle">9.4</text><text x="169.3" y="332" fill="#9096a6" font="13px 'Helvetica Neue', Arial, sans-serif" text-anchor="middle">10×10 paint drag</text><rect x="324.0" y="268.1" width="44.0" height="35.9" fill="#8b6ce0"/><text x="346.0" y="262.1" fill="#d1d3d9" font="13px 'Helvetica Neue', Arial, sans-serif" font-size="11" text-anchor="middle">8.3</text><rect x="372.0" y="266.0" width="44.0" height="38.0" fill="#d64d8e"/><text x="394.0" y="260.0" fill="#d1d3d9" font="13px 'Helvetica Neue', Arial, sans-serif" font-size="11" text-anchor="middle">8.8</text><rect x="420.0" y="264.3" width="44.0" height="39.7" fill="#5b8def"/><text x="442.0" y="258.3" fill="#d1d3d9" font="13px 'Helvetica Neue', Arial, sans-serif" font-size="11" text-anchor="middle">9.2</text><text x="396.0" y="332" fill="#9096a6" font="13px 'Helvetica Neue', Arial, sans-serif" text-anchor="middle">1000×1000 paint drag</text><rect x="550.7" y="266.6" width="44.0" height="37.4" fill="#8b6ce0"/><text x="572.7" y="260.6" fill="#d1d3d9" font="13px 'Helvetica Neue', Arial, sans-serif" font-size="11" text-anchor="middle">8.7</text><rect x="598.7" y="265.2" width="44.0" height="38.8" fill="#d64d8e"/><text x="620.7" y="259.2" fill="#d1d3d9" font="13px 'Helvetica Neue', Arial, sans-serif" font-size="11" text-anchor="middle">9.0</text><rect x="646.7" y="88.3" width="44.0" height="215.7" fill="#5b8def"/><text x="668.7" y="82.3" fill="#d1d3d9" font="13px 'Helvetica Neue', Arial, sans-serif" font-size="11" text-anchor="middle">50.0</text><text x="622.7" y="332" fill="#9096a6" font="13px 'Helvetica Neue', Arial, sans-serif" text-anchor="middle">1000×1000 zoom+pan (blit path)</text><rect x="56" y="344" width="10" height="10" fill="#8b6ce0"/><text x="72" y="353" fill="#9096a6" font="13px 'Helvetica Neue', Arial, sans-serif" font-size="11">avg</text><rect x="166" y="344" width="10" height="10" fill="#d64d8e"/><text x="182" y="353" fill="#9096a6" font="13px 'Helvetica Neue', Arial, sans-serif" font-size="11">p95</text><rect x="276" y="344" width="10" height="10" fill="#5b8def"/><text x="292" y="353" fill="#9096a6" font="13px 'Helvetica Neue', Arial, sans-serif" font-size="11">worst</text>
</svg>