<svg xmlns="http://www.w3.org/2000/svg" width="760" height="300" viewBox="0 0 760 300">
<rect width="760" height="300" fill="#0e1013"/>
<text x="56" y="28" fill="#d1d3d9" font="13px 'Helvetica Neue', Arial, sans-serif" font-size="15">Frame-time trace during the 1000×1000 paint drag</text>
<text x="16" y="158.0" fill="#9096a6" font="13px 'Helvetica Neue', Arial, sans-serif" font-size="11" transform="rotate(-90 16 158.0)" text-anchor="middle">ms</text>
<line x1="56" y1="260.0" x2="736" y2="260.0" stroke="#22252e"/><text x="48" y="264.0" fill="#9096a6" font="13px 'Helvetica Neue', Arial, sans-serif" font-size="11" text-anchor="end">0</text><line x1="56" y1="209.0" x2="736" y2="209.0" stroke="#22252e"/><text x="48" y="213.0" fill="#9096a6" font="13px 'Helvetica Neue', Arial, sans-serif" font-size="11" text-anchor="end">5</text><line x1="56" y1="158.0" x2="736" y2="158.0" stroke="#22252e"/><text x="48" y="162.0" fill="#9096a6" font="13px 'Helvetica Neue', Arial, sans-serif" font-size="11" text-anchor="end">10</text><line x1="56" y1="107.0" x2="736" y2="107.0" stroke="#22252e"/><text x="48" y="111.0" fill="#9096a6" font="13px 'Helvetica Neue', Arial, sans-serif" font-size="11" text-anchor="end">14</text><line x1="56" y1="56.0" x2="736" y2="56.0" stroke="#22252e"/><text x="48" y="60.0" fill="#9096a6" font="13px 'Helvetica Neue', Arial, sans-serif" font-size="11" text-anchor="end">19</text><line x1="56" y1="82.6" x2="736" y2="82.6" stroke="#4caf50" stroke-dasharray="6 4"/><text x="62" y="76.6" fill="#4caf50" font="13px 'Helvetica Neue', Arial, sans-serif" font-size="11" text-anchor="start">60fps budget (16.7ms)</text><path d="M56.0,170.8L63.7,176.1L71.5,166.5L79.2,171.8L86.9,171.8L94.6,171.8L102.4,174.0L110.1,167.6L117.8,175.0L125.5,168.6L133.3,171.8L141.0,170.8L148.7,172.9L156.5,170.8L164.2,171.8L171.9,171.8L179.6,170.8L187.4,171.8L195.1,170.8L202.8,171.8L210.5,170.8L218.3,171.8L226.0,171.8L233.7,170.8L241.5,171.8L249.2,171.8L256.9,171.8L264.6,171.8L272.4,170.8L280.1,170.8L287.8,171.8L295.5,171.8L303.3,171.8L311.0,171.8L318.7,170.8L326.5,171.8L334.2,175.0L341.9,166.5L349.6,171.8L357.4,172.9L365.1,170.8L372.8,171.8L380.5,171.8L388.3,170.8L396.0,170.8L403.7,172.9L411.5,170.8L419.2,171.8L426.9,170.8L434.6,171.8L442.4,172.9L450.1,169.7L457.8,170.8L465.5,172.9L473.3,171.8L481.0,170.8L488.7,170.8L496.5,171.8L504.2,171.8L511.9,171.8L519.6,170.8L527.4,171.8L535.1,171.8L542.8,171.8L550.5,177.1L558.3,164.4L566.0,179.3L573.7,163.3L581.5,172.9L589.2,179.3L596.9,162.3L604.6,172.9L612.4,170.8L620.1,171.8L627.8,171.8L635.5,171.8L643.3,170.8L651.0,170.8L658.7,171.8L666.5,171.8L674.2,171.8L681.9,170.8L689.6,171.8L697.4,170.8L705.1,171.8L712.8,171.8L720.5,170.8L728.3,175.0L736.0,167.6" fill="none" stroke="#8b6ce0" stroke-width="1.5"/><rect x="56" y="284" width="10" height="10" fill="#8b6ce0"/><text x="72" y="293" fill="#9096a6" font="13px 'Helvetica Neue', Arial, sans-serif" font-size="11">1000×1000 paint drag</text>
</svg>