<svg xmlns="http://www.w3.org/2000/svg" width="760" height="360" viewBox="0 0 760 360">
<rect width="760" height="360" fill="#0e1013"/>
<text x="56" y="28" fill="#d1d3d9" font="13px 'Helvetica Neue', Arial, sans-serif" font-size="15">Playtest frame time — engine + culled render on 1000×1000</text>
<text x="16" y="180.0" fill="#9096a6" font="13px 'Helvetica Neue', Arial, sans-serif" font-size="11" transform="rotate(-90 16 180.0)" text-anchor="middle">ms</text>
<line x1="56" y1="304.0" x2="736" y2="304.0" stroke="#22252e"/><text x="48" y="308.0" fill="#9096a6" font="13px 'Helvetica Neue', Arial, sans-serif" font-size="11" text-anchor="end">0</text><line x1="56" y1="242.0" x2="736" y2="242.0" stroke="#22252e"/><text x="48" y="246.0" fill="#9096a6" font="13px 'Helvetica Neue', Arial, sans-serif" font-size="11" text-anchor="end">5</text><line x1="56" y1="180.0" x2="736" y2="180.0" stroke="#22252e"/><text x="48" y="184.0" fill="#9096a6" font="13px 'Helvetica Neue', Arial, sans-serif" font-size="11" text-anchor="end">10</text><line x1="56" y1="118.0" x2="736" y2="118.0" stroke="#22252e"/><text x="48" y="122.0" fill="#9096a6" font="13px 'Helvetica Neue', Arial, sans-serif" font-size="11" text-anchor="end">14</text><line x1="56" y1="56.0" x2="736" y2="56.0" stroke="#22252e"/><text x="48" y="60.0" fill="#9096a6" font="13px 'Helvetica Neue', Arial, sans-serif" font-size="11" text-anchor="end">19</text><line x1="56" y1="88.3" x2="736" y2="88.3" stroke="#4caf50" stroke-dasharray="6 4"/><text x="62" y="82.3" fill="#4caf50" font="13px 'Helvetica Neue', Arial, sans-serif" font-size="11" text-anchor="start">60fps budget (16.7ms)</text><rect x="324.0" y="196.4" width="44.0" height="107.6" fill="#8b6ce0"/><text x="346.0" y="190.4" fill="#d1d3d9" font="13px 'Helvetica Neue', Arial, sans-serif" font-size="11" text-anchor="middle">8.3</text><rect x="372.0" y="190.4" width="44.0" height="113.6" fill="#d64d8e"/><text x="394.0" y="184.4" fill="#d1d3d9" font="13px 'Helvetica Neue', Arial, sans-serif" font-size="11" text-anchor="middle">8.8</text><rect x="420.0" y="182.6" width="44.0" height="121.4" fill="#5b8def"/><text x="442.0" y="176.6" fill="#d1d3d9" font="13px 'Helvetica Neue', Arial, sans-serif" font-size="11" text-anchor="middle">9.4</text><text x="396.0" y="332" fill="#9096a6" font="13px 'Helvetica Neue', Arial, sans-serif" text-anchor="middle">1000×1000 playtest, steering</text><rect x="56" y="344" width="10" height="10" fill="#8b6ce0"/><text x="72" y="353" fill="#9096a6" font="13px 'Helvetica Neue', Arial, sans-serif" font-size="11">avg</text><rect x="166" y="344" width="10" height="10" fill="#d64d8e"/><text x="182" y="353" fill="#9096a6" font="13px 'Helvetica Neue', Arial, sans-serif" font-size="11">p95</text><rect x="276" y="344" width="10" height="10" fill="#5b8def"/><text x="292" y="353" fill="#9096a6" font="13px 'Helvetica Neue', Arial, sans-serif" font-size="11">worst</text>
</svg>